<?xml version="1.0" encoding="utf-8"?>
<!-- Generator: Adobe Illustrator 23.0.0, SVG Export Plug-In . SVG Version: 6.00 Build 0)  -->
<svg version="1.1" id="Layer_1" xmlns="http://www.w3.org/2000/svg" xmlns:xlink="http://www.w3.org/1999/xlink" x="0px" y="0px"
	 viewBox="0 0 64 49.2" style="enable-background:new 0 0 64 49.2;" xml:space="preserve">
<style type="text/css">
	.st0{fill:#3A3A68;}
</style>
<path class="st0" d="M63.9,8.5C63.9,8.4,63.9,8.4,63.9,8.5c-0.1-0.3-0.1-0.5-0.3-0.8c-0.1-0.2-0.3-0.6-0.6-0.9l-0.1-0.1
	C61,4.8,59.1,2.9,57.2,1c-0.4-0.4-1-0.7-1.5-0.9l0,0L55.4,0h-1.1l-0.2,0.1H54c-0.2,0.1-0.6,0.2-0.9,0.4c-0.3,0.2-0.5,0.4-0.8,0.6
	c-9.4,9.5-18.9,19-28.3,28.4c-4.1-4.1-8.2-8.2-12.2-12.2c-0.2-0.2-0.3-0.3-0.5-0.4C10.6,16.3,9.8,16,9,16.1c-0.8,0-1.6,0.4-2.2,1
	c-1.2,1.2-2.5,2.5-3.7,3.7c-0.7,0.7-1.4,1.4-2.1,2.1c-0.4,0.3-0.6,0.8-0.8,1.2L0,24.3V26l0.2,0.2c0.2,0.5,0.4,0.9,0.8,1.3l3,3
	c5.8,5.8,11.7,11.7,17.6,17.6c0.5,0.5,1,0.8,1.6,0.9l0,0h0.1l0.2,0.1h1.1l0.2-0.1l0,0c0.5-0.2,1-0.4,1.4-0.8c0.1,0,0.1-0.1,0.1-0.1
	l0,0l4-4c10.6-10.6,21.6-21.6,32.4-32.4c0.3-0.3,0.6-0.7,0.9-1.2c0.1-0.3,0.2-0.5,0.2-0.6l0,0L64,9.6V8.7L63.9,8.5z"/>
</svg>
