<?xml version="1.0" encoding="utf-8"?>
<!-- Generator: Adobe Illustrator 23.0.0, SVG Export Plug-In . SVG Version: 6.00 Build 0)  -->
<svg version="1.1" id="Layer_1" xmlns="http://www.w3.org/2000/svg" xmlns:xlink="http://www.w3.org/1999/xlink" x="0px" y="0px"
	 viewBox="0 0 150.4 112.2" style="enable-background:new 0 0 150.4 112.2;" xml:space="preserve">
<style type="text/css">
	.st0{fill:#E2E2E2;}
</style>
<g id="JU76TG.tif">
	<g>
		<path class="st0" d="M68.2,0c0.6,0,1.2,0,1.7,0c0.2,0.1,0.4,0.1,0.6,0.1c1.1,0,2.2,0.1,3.3,0.2C80.2,1,86.1,2.9,91.6,6.1
			c4.4,2.6,8.2,5.8,11.5,9.7c3.9,4.7,6.8,9.9,8.6,15.7c0.2,0.8,0.2,0.8,1,0.6c2.1-0.4,4.3-0.6,6.4-0.3c2.8,0.3,5.4,1.2,7.9,2.6
			c3.5,2,6.2,4.7,8.1,8.3c2.6,5,3.2,10.3,1.6,15.7c-0.1,0.5,0,0.8,0.4,1c2.4,1.5,4.6,3.4,6.4,5.6c4.6,5.3,6.8,11.5,6.9,18.5
			c0,1.8-0.2,3.6-0.5,5.3c-1,5.6-3.6,10.4-7.5,14.5c-2.5,2.7-5.5,4.7-8.9,6.3c-3.5,1.6-7.2,2.5-11.1,2.5c-29.9,0-59.8,0-89.7,0
			c-0.9,0-1.7,0-2.6-0.1c-4.1-0.3-8-1.4-11.7-3.2c-4.5-2.2-8.4-5.3-11.5-9.3C1.7,92.8-0.5,85,0.1,76.3c0.4-4.6,1.7-9,3.9-13
			c2-3.6,4.5-6.7,7.6-9.3c3.6-3.1,7.7-5.3,12.3-6.6c0.4-0.1,0.6-0.3,0.6-0.8c0-0.9-0.1-1.8-0.1-2.7c0-2,0.2-4,0.5-6
			c0.9-5.8,2.9-11.3,5.9-16.3c2.4-3.9,5.3-7.3,8.7-10.3c3.6-3.2,7.7-5.8,12.2-7.7c5.1-2.1,10.4-3.4,15.9-3.5C67.8,0.1,68,0,68.2,0z
			 M66.5,70.8c0,5.1,0,10.2,0,15.3c0,2.2,0.8,4,2.4,5.5c2.7,2.6,7.6,2.7,10.4-0.8c1.2-1.5,1.6-3.2,1.6-5.1c0-10.1,0-20.2,0-30.3
			c0-0.2-0.1-0.6,0.1-0.7c0.2-0.1,0.4,0.2,0.6,0.4c3.2,3.1,6.2,6.4,9.6,9.4c2.1,1.9,4.7,2.3,7.3,1.3c4.9-1.9,6.2-8.1,2.5-11.8
			c-7.4-7.5-14.8-14.9-22.3-22.3c-1.3-1.3-2.9-2-4.8-2c-2.2,0-3.9,0.8-5.4,2.3C61.6,39,54.7,45.9,47.9,52.7
			c-0.6,0.6-1.2,1.2-1.8,1.9c-2.4,2.8-2.3,7,0.4,9.7c3,2.9,7.3,2.8,10.2-0.1c3.1-3.1,6.1-6.1,9.2-9.2c0.1-0.1,0.3-0.4,0.5-0.4
			c0.2,0.1,0.1,0.4,0.1,0.6C66.5,60.4,66.5,65.6,66.5,70.8z"/>
	</g>
</g>
</svg>
