<?xml version="1.0" encoding="utf-8"?>
<!-- Generator: Adobe Illustrator 23.0.0, SVG Export Plug-In . SVG Version: 6.00 Build 0)  -->
<svg version="1.1" id="Layer_1" xmlns="http://www.w3.org/2000/svg" xmlns:xlink="http://www.w3.org/1999/xlink" x="0px" y="0px"
	 viewBox="0 0 57.9 52.6" style="enable-background:new 0 0 57.9 52.6;" xml:space="preserve">
<style type="text/css">
	.st0{fill:#FFFFFF;}
</style>
<path class="st0" d="M57.3,16.3c-0.7-0.6-1.6-0.6-2.5,0c-3.3,2.2-6.5,4.3-9.8,6.5c-0.4,0.3-0.7,0.3-1.1-0.1
	c-3.7-3.9-7.3-7.8-11-11.7c-0.3-0.4-0.3-0.5,0.1-0.8c1.5-1.2,2.2-2.8,2.2-4.8c-0.1-2.5-1.9-4.8-4.3-5.3c-2.7-0.6-5.3,0.6-6.5,2.9
	c-1.2,2.3-0.7,5.2,1.2,6.9c0.4,0.3,0.3,0.5,0,0.8c-3.7,3.9-7.5,7.8-11.2,11.7c-0.4,0.4-0.6,0.4-1,0.1C9.9,20.3,6.5,18,3.2,15.7
	c-1.4-0.9-2.4-0.6-3.2,0.8c0,0.4,0,0.8,0,1.2c0.1,0.3,0.2,0.6,0.2,0.9C0.8,22.1,5.5,48.7,6,50.8c0.2,1,0.8,1.7,1.8,1.9
	c14.5,0,29,0,43.6,0c0.9-0.3,1.4-1,1.5-2c0.3-2.1,0.6-4.2,1-6.2c0.8-5.1,1.6-10.3,2.4-15.4c0.6-3.6,1.1-7.2,1.7-10.9
	C58,17.5,57.9,16.8,57.3,16.3z"/>
</svg>
