<?xml version="1.0" encoding="utf-8"?>
<!-- Generator: Adobe Illustrator 23.0.0, SVG Export Plug-In . SVG Version: 6.00 Build 0)  -->
<svg version="1.1" id="Layer_1" xmlns="http://www.w3.org/2000/svg" xmlns:xlink="http://www.w3.org/1999/xlink" x="0px" y="0px"
	 viewBox="0 0 61.2 61.2" style="enable-background:new 0 0 61.2 61.2;" xml:space="preserve">
<style type="text/css">
	.st0{fill:#EAF2F8;}
</style>
<path class="st0" d="M53.6,0H7.6C3.4,0,0,3.4,0,7.6v46.1c0,4.2,3.4,7.6,7.6,7.6h46.1c4.2,0,7.6-3.4,7.6-7.6V7.6
	C61.2,3.4,57.8,0,53.6,0z M53.9,41.2c0,2.7-2.2,4.8-4.8,4.8H12.1c-2.7,0-4.8-2.2-4.8-4.8V11.6c0-2.7,2.2-4.8,4.8-4.8h37.1
	c2.7,0,4.8,2.2,4.8,4.8V41.2z"/>
</svg>
