<?xml version="1.0" encoding="utf-8"?>
<!-- Generator: Adobe Illustrator 23.0.0, SVG Export Plug-In . SVG Version: 6.00 Build 0)  -->
<svg version="1.1" id="Layer_1" xmlns="http://www.w3.org/2000/svg" xmlns:xlink="http://www.w3.org/1999/xlink" x="0px" y="0px"
	 viewBox="0 0 130.9 131.9" style="enable-background:new 0 0 130.9 131.9;" xml:space="preserve">
<style type="text/css">
	.st0{fill:#91F2BD;}
	.st1{fill:#6DC289;}
	.st2{fill:#283644;}
	.st3{fill:#FFFFFF;}
	.st4{fill:#FFF0B3;}
	.st5{fill:#EFCD89;}
	.st6{fill:#8688EC;}
	.st7{fill:#7176C6;}
</style>
<g>
	<g>
		<path class="st0" d="M56.2,52c1.8,14.6-8.5,27.9-23.1,29.7c-5,0.6-9.8-0.2-14.1-2.1c-8.2-3.6-14.4-11.4-15.5-21
			C1.6,44,11.9,30.7,26.5,28.9C41.1,27.1,54.4,37.4,56.2,52z"/>
	</g>
</g>
<g>
	<g>
		<path class="st1" d="M33.1,84.9c-1.6,0-3-1.2-3.2-2.8c-0.2-1.7,1.1-3.3,2.8-3.5c6.2-0.7,11.7-3.9,15.5-8.8
			c3.8-4.9,5.5-11.1,4.8-17.2c-0.2-1.7,1.1-3.3,2.8-3.5c1.7-0.2,3.3,1.1,3.5,2.8c1,7.9-1.2,15.7-6.1,22
			c-4.9,6.3-11.9,10.3-19.8,11.3C33.3,84.9,33.2,84.9,33.1,84.9z"/>
	</g>
</g>
<g>
	<g>
		<path class="st1" d="M29.8,78.7c-1.8,0-3.2-1.4-3.2-3.2c0-1.8,1.4-3.2,3.2-3.2c0.7,0,1.4,0,2.1-0.1c4.5-0.5,8.5-2.9,11.3-6.4
			c1.1-1.4,3.1-1.6,4.5-0.5c1.4,1.1,1.6,3.1,0.5,4.5c-3.8,4.9-9.4,8.1-15.5,8.8C31.7,78.6,30.8,78.7,29.8,78.7z"/>
	</g>
</g>
<g>
	<g>
		<path class="st2" d="M29.8,85.1c-4.1,0-8.3-0.9-12.1-2.6C8.1,78.3,1.5,69.5,0.2,59c-1-7.7,1.1-15.3,5.7-21.6
			c1.1-1.4,3.1-1.7,4.5-0.6c1.4,1.1,1.7,3.1,0.6,4.5c-3.6,4.9-5.2,10.8-4.5,16.9c1.1,8.2,6.2,15.1,13.7,18.5
			c3.8,1.7,8.2,2.3,12.4,1.8c1.7-0.2,3.3,1.1,3.5,2.8s-1.1,3.3-2.8,3.5C32.2,85,31,85.1,29.8,85.1z"/>
	</g>
</g>
<g>
	<g>
		<path class="st3" d="M9.7,60.9c-1.6,0-3-1.2-3.2-2.8c-0.7-6.2,1-12.3,4.8-17.2c1.1-1.4,3.1-1.6,4.5-0.5c1.4,1.1,1.6,3.1,0.5,4.5
			c-2.8,3.6-4,8.1-3.5,12.6c0.2,1.7-1.1,3.3-2.8,3.5C10,60.9,9.9,60.9,9.7,60.9z"/>
	</g>
</g>
<g>
	<g>
		<path class="st4" d="M126.4,44.1c5,16.9-4.7,34.7-21.6,39.7c-5.7,1.7-11.7,1.7-17.1,0.3c-10.4-2.8-19.3-10.7-22.5-21.8
			c-5-16.9,4.7-34.7,21.6-39.7S121.4,27.2,126.4,44.1z"/>
	</g>
</g>
<g>
	<g>
		<path class="st5" d="M111.9,74.3l-0.1-0.1c-4.6-3.4-6.9-8.8-4.5-14c0.3-0.7,0.6-1.5,1-2.2c0.5-1.4,0.1-3.1-1.2-3.9
			c-1.7-1.1-3.9-0.3-4.7,1.5c-3.2,7.9-8.7,14.5-15.8,18.9l0,0c-7.7-3.3-12.8-10.2-13.8-18.4c-0.2-1.7-1.7-3-3.4-2.9
			c-1.8,0.1-3.2,1.8-3,3.6c0.1,1,0.3,1.8,0.4,2.7c-0.9-0.5-2-0.6-3.1-0.1c-1.5,0.7-2,2.4-1.6,3.9c2.7,8.7,8.4,16,16.2,20.3
			c0.3,0.3,0.7,0.5,1.2,0.6c2.3,1.2,4.8,2.1,7.3,2.9c0.3,0.1,0.5,0.1,0.9,0.1c1.4,0,2.7-1,3.1-2.3c0.2-1,0-1.8-0.4-2.6
			c1.8,0.3,3.6,0.5,5.4,0.5c1.3,0,2.4-0.1,3.7-0.2c4-0.5,7.9-1.8,11.4-3.8C112.2,77.9,112.8,75.8,111.9,74.3z"/>
	</g>
</g>
<g>
	<g>
		<path class="st2" d="M95.7,88.3c-2.3,0-4.7-0.2-7-0.7c-1.7-0.3-2.9-2-2.4-3.7c0.4-1.7,2-2.9,3.7-2.4c3.1,0.6,6.2,0.7,9.4,0.3
			c7.7-1,14.4-4.8,19.1-10.8c4.8-6.1,6.8-13.6,5.8-21.2c-1.1-8.7-6.1-16.4-13.5-21c-1.5-1-2-2.9-1.1-4.4c1-1.5,2.9-2,4.4-1.1
			c9.1,5.6,15.2,15,16.5,25.6c1.2,9.3-1.4,18.5-7.1,25.8c-5.7,7.4-14,12.1-23.4,13.3C98.6,88.2,97.1,88.3,95.7,88.3z"/>
	</g>
</g>
<g>
	<g>
		<g>
			<path class="st6" d="M101.8,35.8c2.6,20.4-11.9,39-32.3,41.5c-7,0.9-13.7-0.2-19.8-3c-11.5-5.1-20.1-16-21.8-29.5
				c-2.6-20.4,11.9-39,32.3-41.5S99.4,15.4,101.8,35.8z"/>
		</g>
	</g>
</g>
<g>
	<g>
		<g>
			<path class="st7" d="M64.9,74.5c-1.8,0-3.2-1.4-3.2-3.2c0-1.8,1.4-3.2,3.2-3.2c15.2,0,27.7-12.4,27.7-27.7c0-1.8,1.4-3.2,3.2-3.2
				c1.8,0,3.2,1.4,3.2,3.2C98.9,59.1,83.6,74.5,64.9,74.5z"/>
		</g>
	</g>
</g>
<g>
	<g>
		<g>
			<path class="st3" d="M37.4,29.7c-0.5,0-1-0.1-1.5-0.3c-1.6-0.9-2.2-2.8-1.4-4.3c4.1-8.1,11.3-14.3,19.8-17c1.7-0.5,3.5,0.3,4,2
				c0.5,1.7-0.3,3.5-2,4c-6.9,2.2-12.7,7.2-16,13.7C39.7,29,38.5,29.7,37.4,29.7z"/>
		</g>
	</g>
</g>
<g>
	<g>
		<g>
			<g>
				<circle class="st3" cx="34.1" cy="39.4" r="3.2"/>
			</g>
		</g>
	</g>
</g>
<g>
	<path class="st2" d="M105.3,40.4C105.3,18.1,87.2,0,64.9,0S24.5,18.1,24.5,40.4c0,14.3,7.3,27.2,19.6,34.6c1.5,1,3.5,0.4,4.4-1.1
		c1-1.5,0.4-3.5-1.1-4.4C37,63.3,30.9,52.4,30.9,40.4c0-18.7,15.3-34,34-34s34,15.3,34,34s-15.3,34-34,34l0,0c-0.2,0-0.4,0-0.5,0.1
		c-0.1,0-0.1,0-0.2,0s-0.2,0.1-0.3,0.1c-0.1,0-0.1,0.1-0.2,0.1c-0.1,0-0.2,0.1-0.3,0.2c-0.1,0-0.1,0.1-0.2,0.1c0,0,0,0-0.1,0
		l-8.5,6.4c-1.4,1.1-1.7,3.1-0.6,4.5c1.1,1.4,3.1,1.7,4.5,0.6l6.6-4.9l6.6,4.9c0.5,0.4,1.3,0.6,1.9,0.6c1,0,1.9-0.4,2.6-1.3
		c1.1-1.4,0.7-3.4-0.6-4.5l-2-1.5C91.6,76,105.3,59.8,105.3,40.4z"/>
</g>
<g>
	<path class="st2" d="M58.8,120.3c-1.6,0-2.9-1.2-3.2-2.8c-0.9-5.5,1.4-9.7,3.3-13.4c2-3.7,3.8-7.3,3-12.8c-0.3-1.7,1-3.4,2.7-3.6
		c1.7-0.2,3.4,1,3.6,2.7c1.2,7.6-1.5,12.7-3.6,16.7c-1.7,3.3-3.1,6-2.6,9.5c0.2,1.7-1,3.4-2.7,3.6C59.2,120.3,59,120.3,58.8,120.3z"
		/>
</g>
<g>
	<circle class="st2" cx="60.6" cy="128.7" r="3.2"/>
</g>
<g>
	<g>
		<g>
			<path class="st3" d="M37.4,29.7c-0.5,0-1-0.1-1.5-0.3c-1.6-0.9-2.2-2.8-1.4-4.3c4.1-8.1,11.3-14.3,19.8-17c1.7-0.5,3.5,0.3,4,2
				c0.5,1.7-0.3,3.5-2,4c-6.9,2.2-12.7,7.2-16,13.7C39.7,29,38.5,29.7,37.4,29.7z"/>
		</g>
	</g>
</g>
</svg>
