<?xml version="1.0" encoding="utf-8"?>
<!-- Generator: Adobe Illustrator 23.0.0, SVG Export Plug-In . SVG Version: 6.00 Build 0)  -->
<svg version="1.1" id="Layer_1" xmlns="http://www.w3.org/2000/svg" xmlns:xlink="http://www.w3.org/1999/xlink" x="0px" y="0px"
	 viewBox="0 0 41.9 41.9" style="enable-background:new 0 0 41.9 41.9;" xml:space="preserve">
<style type="text/css">
	.st0{fill:#00C484;}
	.st1{fill:#FCD9BD;}
	.st2{fill:#F67280;}
	.st3{fill:#C06D84;}
	.st4{fill:#6C5B7B;}
	.st5{fill:#345C7D;}
	.st6{fill:#FFFFFF;}
	.st7{fill:#8688EC;}
	.st8{fill:#FCC54F;}
	.st9{clip-path:url(#SVGID_2_);}
	.st10{clip-path:url(#SVGID_4_);}
	.st11{clip-path:url(#SVGID_6_);}
</style>
<rect x="487.9" y="226.1" class="st0" width="677.2" height="345.3"/>
<rect x="-243.2" y="226.1" class="st1" width="677.2" height="345.3"/>
<path class="st2" d="M495-784.8h128.4c17.6,0,31.8,14.2,31.8,31.8v155.9h-192V-753C463.3-770.5,477.5-784.8,495-784.8z"/>
<rect x="464" y="-597.1" class="st3" width="192" height="143.2"/>
<rect x="464" y="-453.9" class="st4" width="192" height="112.6"/>
<path class="st5" d="M464-341.3h192v36.7c0,17.6-14.2,31.8-31.8,31.8H495.7c-17.6,0-31.8-14.2-31.8-31.8L464-341.3L464-341.3z"/>
<rect x="-866.4" y="-265.7" transform="matrix(0.7071 -0.7071 0.7071 0.7071 -117.7014 -652.2675)" class="st6" width="40.3" height="163.3"/>
<rect x="-927.9" y="-204.2" transform="matrix(0.7071 -0.7071 0.7071 0.7071 -117.7289 -652.2855)" class="st6" width="163.3" height="40.3"/>
<g id="omy196.tif">
	
		<image style="overflow:visible;enable-background:new    ;" width="190" height="162" id="Layer_0" xlink:href="3591F00673CECC89.png"  transform="matrix(0.4944 0 0 0.4944 35.2968 -415.3777)">
	</image>
</g>
<path d="M62.7-225.7l5.4-5.4c0.6-0.6,0.6-1.5,0-2l-2.2-2.2c-0.6-0.6-1.5-0.6-2,0l-5.4,5.5l-5.5-5.5c-0.6-0.6-1.5-0.6-2,0l-2.2,2.2
	c-0.6,0.6-0.6,1.5,0,2l5.5,5.5l-5.4,5.4c-0.6,0.6-0.6,1.5,0,2l2.2,2.2c0.6,0.6,1.5,0.6,2,0l5.4-5.5L64-216c0.6,0.6,1.5,0.6,2,0
	l2.2-2.2c0.6-0.6,0.6-1.5,0-2L62.7-225.7z"/>
<path d="M78.5-248.7H38.3c-3.7,0-6.7,3-6.7,6.6v40.3c0,3.7,3,6.7,6.7,6.7h40.3c3.7,0,6.7-3,6.7-6.7v-40.3
	C85.1-245.7,82.1-248.7,78.5-248.7z M78.7-212.8c0,2.4-1.9,4.2-4.2,4.2H42.2c-2.4,0-4.2-1.9-4.2-4.2v-25.8c0-2.4,1.9-4.2,4.2-4.2
	h32.4c2.4,0,4.2,1.9,4.2,4.2L78.7-212.8L78.7-212.8z"/>
<g>
	
		<text transform="matrix(1 0 0 1 -556.709 -375.3693)" class="st7" style="font-family:'Rubik-Medium'; font-size:153.9739px; letter-spacing:-4;">h</text>
	
		<text transform="matrix(1 0 0 1 -465.909 -375.3693)" class="st7" style="font-family:'Rubik-Medium'; font-size:153.9739px; letter-spacing:-6;">e</text>
	
		<text transform="matrix(1 0 0 1 -385.209 -375.3693)" class="st7" style="font-family:'Rubik-Medium'; font-size:153.9739px; letter-spacing:-4;">xie</text>
	<path class="st7" d="M-628.9-438.1l11.3-11.3c1.2-1.2,1.2-3,0-4.2l-4.6-4.6c-1.2-1.2-3-1.2-4.2,0l-11.3,11.3l-11.3-11.3
		c-1.2-1.2-3-1.2-4.2,0l-4.6,4.6c-1.2,1.2-1.2,3,0,4.2l11.3,11.3l-11.3,11.3c-1.2,1.2-1.2,3,0,4.2l4.6,4.6c1.2,1.2,3,1.2,4.2,0
		l11.3-11.3l11.3,11.3c1.2,1.2,3,1.2,4.2,0l4.6-4.6c1.2-1.2,1.2-3,0-4.2L-628.9-438.1z"/>
	<path class="st7" d="M-596.4-485.5h-82.7c-7.6,0-13.7,6.1-13.7,13.7v82.9c0,7.6,6.1,13.7,13.7,13.7h82.9c7.6,0,13.7-6.1,13.7-13.7
		v-82.9C-582.7-479.4-588.8-485.5-596.4-485.5z M-595.8-411.5c0,4.9-4,8.6-8.6,8.6h-66.5c-4.9,0-8.6-4-8.6-8.6v-53.2
		c0-4.9,4-8.6,8.6-8.6h66.7c4.9,0,8.6,4,8.6,8.6v53.2H-595.8z"/>
</g>
<g>
	
		<text transform="matrix(1 0 0 1 -527.6747 -248.8449)" class="st7" style="font-family:'Rubik-Medium'; font-size:153.9739px; letter-spacing:-4;">h</text>
	
		<text transform="matrix(1 0 0 1 -436.8748 -248.8449)" class="st7" style="font-family:'Rubik-Medium'; font-size:153.9739px; letter-spacing:-6;">e</text>
	
		<text transform="matrix(1 0 0 1 -356.1748 -248.8449)" class="st7" style="font-family:'Rubik-Medium'; font-size:153.9739px; letter-spacing:-4;">xie</text>
	<path class="st7" d="M-599.8-311.6l11.3-11.3c1.2-1.2,1.2-3,0-4.2l-4.6-4.6c-1.2-1.2-3-1.2-4.2,0l-11.3,11.3l-11.3-11.3
		c-1.2-1.2-3-1.2-4.2,0l-4.6,4.6c-1.2,1.2-1.2,3,0,4.2l11.3,11.3l-11.3,11.3c-1.2,1.2-1.2,3,0,4.2l4.6,4.6c1.2,1.2,3,1.2,4.2,0
		l11.3-11.3l11.3,11.3c1.2,1.2,3,1.2,4.2,0l4.6-4.6c1.2-1.2,1.2-3,0-4.2L-599.8-311.6z"/>
	<path class="st7" d="M-567.3-359H-650c-7.6,0-13.7,6.1-13.7,13.7v82.9c0,7.6,6.1,13.7,13.7,13.7h82.9c7.6,0,13.7-6.1,13.7-13.7
		v-82.9C-553.7-352.9-559.8-359-567.3-359z M-566.8-285c0,4.9-4,8.6-8.6,8.6h-66.5c-4.9,0-8.6-4-8.6-8.6v-53.2c0-4.9,4-8.6,8.6-8.6
		h66.7c4.9,0,8.6,4,8.6,8.6v53.2H-566.8z"/>
</g>
<rect x="487.9" y="-148.1" class="st8" width="677.2" height="345.3"/>
<g>
	<g>
		<defs>
			<path id="SVGID_1_" d="M857.3,17.7v-11h-12.8V-6.1h-11V6.7h-13.7V-6.1h-11V6.7h-13v11h12.8v13.7h-12.8v11h12.8v12.8h11V42.4h13.7
				v12.8h11V42.4h12.8v-11h-12.8V17.7H857.3z M833.4,31.4h-13.7V17.7h13.7V31.4z"/>
		</defs>
		<clipPath id="SVGID_2_">
			<use xlink:href="#SVGID_1_"  style="overflow:visible;"/>
		</clipPath>
		<g class="st9">
			
				<image style="overflow:visible;enable-background:new    ;" width="801" height="601" xlink:href="../../../Sample Images/Palette 3/2.png"  transform="matrix(0.1294 0 0 0.1294 782.0424 -14.3408)">
			</image>
		</g>
	</g>
</g>
<g>
	<g>
		<defs>
			<path id="SVGID_3_" d="M126.2,391.9v-11h-12.8v-12.8h-11v12.8H88.7v-12.8h-11v12.8H64.9v11h12.8v13.7H64.9v11h12.8v12.8h11v-12.8
				h13.7v12.8h11v-12.8h12.8v-11h-12.8v-13.7H126.2z M102.3,405.6H88.6v-13.7h13.7V405.6z"/>
		</defs>
		<clipPath id="SVGID_4_">
			<use xlink:href="#SVGID_3_"  style="overflow:visible;"/>
		</clipPath>
		<g class="st10">
			
				<image style="overflow:visible;enable-background:new    ;" width="800" height="600" xlink:href="../../../Sample Images/Palette 1/1.png"  transform="matrix(0.1077 0 0 0.1077 63.2945 366.4551)">
			</image>
		</g>
	</g>
</g>
<path class="st7" d="M41.9,16.3V8.7h-8.7V0h-7.5v8.7h-9.4V0H8.7v8.7H0v7.5h8.7v9.4H0v7.5h8.7v8.7h7.5v-8.7h9.4v8.7h7.5v-8.7h8.7
	v-7.5h-8.7v-9.4H41.9z M25.6,25.6h-9.4v-9.4h9.4V25.6z"/>
<g>
	<g>
		<defs>
			<path id="SVGID_5_" d="M857.3,391.9v-11h-12.8v-12.8h-11v12.8h-13.7v-12.8h-11v12.8h-13v11h12.8v13.7h-12.8v11h12.8v12.8h11
				v-12.8h13.7v12.8h11v-12.8h12.8v-11h-12.8v-13.7H857.3z M833.4,405.6h-13.7v-13.7h13.7V405.6z"/>
		</defs>
		<clipPath id="SVGID_6_">
			<use xlink:href="#SVGID_5_"  style="overflow:visible;"/>
		</clipPath>
		<g class="st11">
			
				<image style="overflow:visible;enable-background:new    ;" width="800" height="601" xlink:href="../../../Sample Images/Palette 4/1.png"  transform="matrix(0.141 0 0 0.141 770.1016 359.9547)">
			</image>
		</g>
	</g>
</g>
<g>
	<path class="st2" d="M142.1-234.8h0.3c3.5-5.1,7.5-7.7,14.1-7.7c10.1,0,16.8,7.6,16.8,18.2v31.8h-12.9v-29.9c0-5.2-3-8.9-8.4-8.9
		c-5.7,0-9.9,4.6-9.9,11.2v27.6h-12.9v-67.8h12.9V-234.8z"/>
	<path class="st2" d="M-78-8.4h0.3c3.5-5.1,7.5-7.7,14.1-7.7c10.1,0,16.8,7.6,16.8,18.2v31.8h-12.9V4c0-5.2-3-8.9-8.4-8.9
		c-5.7,0-9.9,4.6-9.9,11.2v27.6h-12.9v-67.8H-78V-8.4z"/>
	<path class="st2" d="M179-216.9c0-14.4,9.8-25.6,24-25.6c15.7,0,24,12,24,29.3h-35.3c0.9,7.5,5.1,12.1,12.4,12.1c5,0,8-2.3,9.4-6
		h12.7c-1.8,8.6-9.5,15.9-22,15.9C188.1-191.1,179-202.3,179-216.9z M191.9-222.1h21.6c-0.4-6.2-4.5-10.4-10.3-10.4
		C196.3-232.5,193-228.4,191.9-222.1z"/>
	<path class="st2" d="M244.4-218.3l-15.8-22.9h14.7l8.6,13.9h0.2l8.2-13.9h13.4l-15.1,22.8l17.4,25.9h-15.4l-9-16.1h-0.2l-10.5,16.1
		h-14.1L244.4-218.3z"/>
	<path class="st2" d="M308.6-197.9h-0.2c-2.5,3.7-6,6.5-14.3,6.5c-10,0-17-5.2-17-14.9c0-10.7,8.7-14.1,19.5-15.7
		c8.1-1.1,11.8-1.8,11.8-5.5c0-3.5-2.8-5.8-8.2-5.8c-6.1,0-9,2.2-9.4,6.8h-11.5c0.4-8.5,6.7-16,21-16c14.6,0,20.5,6.5,20.5,17.9
		v24.8c0,3.7,0.6,5.9,1.7,6.7v0.5h-12.4C309.3-193.4,308.8-195.7,308.6-197.9z M308.7-209.7v-7.3c-2.3,1.3-5.8,2.1-9,2.8
		c-6.7,1.5-10.1,3-10.1,7.6c0,4.6,3,6.2,7.6,6.2C304.6-200.4,308.7-204.9,308.7-209.7z"/>
	<path class="st2" d="M326.6-216.8c0-15.2,8.6-25.7,20.8-25.7c6.8,0,11.1,3.1,13.8,7.2h0.3v-25.1h12.9v67.8h-12.4v-6.4h-0.2
		c-2.8,4.6-7.7,7.8-14.5,7.8C334.9-191.1,326.6-201,326.6-216.8z M361.7-216.5c0-9.3-3-15.6-11.3-15.6c-7.1,0-10.7,6.3-10.7,15.3
		c0,9.4,3.7,14.9,10.3,14.9C357.7-201.9,361.7-207.6,361.7-216.5z"/>
	<path class="st2" d="M380.3-216.8c0-15.2,8.6-25.7,20.8-25.7c6.8,0,11.1,3.1,13.8,7.2h0.3v-25.1H428v67.8h-12.4v-6.4h-0.2
		c-2.8,4.6-7.7,7.8-14.5,7.8C388.6-191.1,380.3-201,380.3-216.8z M415.4-216.5c0-9.3-3-15.6-11.3-15.6c-7.1,0-10.7,6.3-10.7,15.3
		c0,9.4,3.7,14.9,10.3,14.9C411.4-201.9,415.4-207.6,415.4-216.5z"/>
	<path class="st2" d="M436.4-260.3h12.9v11.6h-12.9V-260.3z M436.4-241.2h12.9v48.7h-12.9V-241.2z"/>
	<path class="st2" d="M455.2-216.8c0-14.5,9.5-25.7,24.3-25.7c12.6,0,20.4,7.3,22.1,17.8H489c-0.9-4.3-4.2-7.5-8.9-7.5
		c-7.8,0-11.8,6-11.8,15.4c0,9.2,3.7,15.4,11.6,15.4c5.2,0,8.9-2.8,9.8-8.3h12.4c-0.9,10.3-8.9,18.6-21.9,18.6
		C464.8-191.1,455.2-202.2,455.2-216.8z"/>
	<path class="st2" d="M504.9-241.2h6.7v-15.2h12.6v15.2h8.4v8.5h-8.4v25.8c0,3.6,2,4.8,4.8,4.8c1.6,0,3.8-0.1,3.8-0.1v9.5
		c0,0-2.9,0.2-8.1,0.2c-6.3,0-13.2-2.5-13.2-11.7v-28.6h-6.7V-241.2z"/>
</g>
<g id="ZmYxhG.tif">
	
		<image style="overflow:visible;" width="146" height="410" id="Layer_0_1_" xlink:href="3591F00673CECC81.png"  transform="matrix(-6.609163e-02 0 0 0.5 90.865 -93.5)">
	</image>
</g>
</svg>
