<?xml version="1.0" encoding="utf-8"?>
<!-- Generator: Adobe Illustrator 23.0.0, SVG Export Plug-In . SVG Version: 6.00 Build 0)  -->
<svg version="1.1" id="Layer_1" xmlns="http://www.w3.org/2000/svg" xmlns:xlink="http://www.w3.org/1999/xlink" x="0px" y="0px"
	 viewBox="0 0 61.2 61.2" style="enable-background:new 0 0 61.2 61.2;" xml:space="preserve">
<style type="text/css">
	.st0{fill:#E2E2E2;}
</style>
<path class="st0" d="M51.9,0H9.3C4.2,0,0,4.2,0,9.3v42.5c0,5.2,4.2,9.3,9.3,9.3h42.5c5.2,0,9.3-4.2,9.3-9.3V9.3
	C61.2,4.2,57,0,51.9,0z M37.9,14.8c3.3,0,6,2.8,6,6.1c0,3.2-2.8,6-6,6c-3.3,0-6-2.7-6.1-6C31.8,17.5,34.6,14.7,37.9,14.8z
	 M49.2,51.9c-6.3,0-12.7,0-19,0c0,0,0,0,0,0c-6.2,0-12.3,0-18.5,0c-0.5,0-1,0-1.5-0.1c-1-0.2-1.5-1-1.2-2c0.1-0.4,0.3-0.8,0.5-1.1
	c3.3-6.5,6.6-13,9.8-19.5c0.1-0.1,0.1-0.2,0.2-0.3c1-1.9,2.2-2,3.5-0.3c1.7,2.2,3.4,4.4,5.1,6.6c1.6,2.2,3.3,4.3,4.9,6.5
	c1.6,2,3.1,2.1,4.9,0.3c0.7-0.7,1.4-1.5,2.2-2.2c1.2-1.1,2.7-1.1,3.7,0.3c2.3,3.2,4.6,6.4,6.8,9.6C51.5,51,50.9,51.9,49.2,51.9z"/>
</svg>
