<?xml version="1.0" encoding="utf-8"?>
<!-- Generator: Adobe Illustrator 23.0.0, SVG Export Plug-In . SVG Version: 6.00 Build 0)  -->
<svg version="1.1" id="Layer_1" xmlns="http://www.w3.org/2000/svg" xmlns:xlink="http://www.w3.org/1999/xlink" x="0px" y="0px"
	 viewBox="0 0 149.9 149.9" style="enable-background:new 0 0 149.9 149.9;" xml:space="preserve">
<style type="text/css">
	.st0{fill:#E2E2E2;}
</style>
<g id="_x39_8rGYS.tif">
	<g>
		<path class="st0" d="M0,134.3c0-17,0-33.9,0-50.9c0.3,0,0.7,0,1,0c23.1,0,46.3,0,69.4,0c0.2,0,0.6-0.1,0.7,0.1
			c0.1,0.2-0.2,0.4-0.4,0.6c-4.2,4.2-8.4,8.4-12.5,12.6c-3.6,3.7-3.1,9.7,1,12.7c3.3,2.4,7.9,2.1,10.8-0.8
			c9.1-9.1,18.2-18.2,27.3-27.3c0.4-0.4,0.8-0.9,1.1-1.3c2.3-3.2,2-7.7-0.8-10.5C88.5,60,79.3,50.8,70,41.5c-3-3-7.8-3.3-11.1-0.5
			c-2.4,1.9-3.4,4.5-3.1,7.5c0.2,2,1.2,3.7,2.6,5.1c4.1,4.1,8.1,8.1,12.2,12.2c0.2,0.2,0.6,0.4,0.5,0.6c-0.1,0.3-0.5,0.1-0.8,0.1
			c-23.1,0-46.2,0-69.3,0c-0.4,0-0.7,0-1.1,0c0-17.1,0-34.2,0-51.4c0-0.2,0.1-0.3,0.1-0.5C1,7.4,6.3,1.7,13.6,0.3
			C14.4,0.2,15.2,0.1,16,0c39.3,0,78.7,0,118,0c0.2,0,0.4,0.1,0.6,0.1c4.1,0.3,7.7,2,10.5,4.9c3.2,3.2,4.7,7.2,4.7,11.7
			c0,39,0,77.9,0,116.9c0,2.5-0.5,4.8-1.7,7c-3.2,6-8.1,9.3-14.9,9.3c-38.9,0-77.8,0-116.7,0c-0.6,0-1.1,0-1.7,0
			c-7.5-0.7-13.5-6.4-14.7-13.8C0.2,135.4,0.2,134.8,0,134.3z"/>
	</g>
</g>
</svg>
