<?xml version="1.0" encoding="utf-8"?>
<!-- Generator: Adobe Illustrator 23.0.0, SVG Export Plug-In . SVG Version: 6.00 Build 0)  -->
<svg version="1.1" id="Layer_1" xmlns="http://www.w3.org/2000/svg" xmlns:xlink="http://www.w3.org/1999/xlink" x="0px" y="0px"
	 viewBox="0 0 48.7 48.7" style="enable-background:new 0 0 48.7 48.7;" xml:space="preserve">
<style type="text/css">
	.st0{fill:#283644;}
</style>
<path class="st0" d="M24.4,2.8c-1.6,0-2.9,0.9-3.5,2.3L0.6,40.2v0c-0.4,0.6-0.6,1.3-0.6,2c0,2.1,1.7,3.7,3.7,3.7c0.1,0,0.2,0,0.3,0
	l0,0h20.3h20.3l0,0c0.1,0,0.2,0,0.3,0c2.1,0,3.7-1.7,3.7-3.7c0-0.7-0.2-1.4-0.6-2l0-0.1c0,0,0,0,0,0l-20.3-35
	C27.3,3.8,25.9,2.8,24.4,2.8z M22.1,18.5h4.5l-0.4,12.1h-3.8L22.1,18.5z M24.4,34.3c1.5,0,2.5,0.8,2.5,2.2c0,1.4-0.9,2.2-2.5,2.2
	c-1.6,0-2.5-0.8-2.5-2.2C21.9,35.1,22.8,34.3,24.4,34.3z"/>
</svg>
